<?xml version="1.0" encoding="UTF-8"?>
<!DOCTYPE svg PUBLIC "-//W3C//DTD SVG 1.1//EN" "http://www.w3.org/Graphics/SVG/1.1/DTD/svg11.dtd">
<svg xmlns="http://www.w3.org/2000/svg" version="1.1" viewBox="0 0 23 23" stroke="none">
	<rect width="100%" height="100%" fill="#FFFFFF"/>
	<path d="M1,1h1v1h-1z M2,1h1v1h-1z M3,1h1v1h-1z M4,1h1v1h-1z M5,1h1v1h-1z M6,1h1v1h-1z M7,1h1v1h-1z M9,1h1v1h-1z M12,1h1v1h-1z M15,1h1v1h-1z M16,1h1v1h-1z M17,1h1v1h-1z M18,1h1v1h-1z M19,1h1v1h-1z M20,1h1v1h-1z M21,1h1v1h-1z M1,2h1v1h-1z M7,2h1v1h-1z M11,2h1v1h-1z M13,2h1v1h-1z M15,2h1v1h-1z M21,2h1v1h-1z M1,3h1v1h-1z M3,3h1v1h-1z M4,3h1v1h-1z M5,3h1v1h-1z M7,3h1v1h-1z M10,3h1v1h-1z M13,3h1v1h-1z M15,3h1v1h-1z M17,3h1v1h-1z M18,3h1v1h-1z M19,3h1v1h-1z M21,3h1v1h-1z M1,4h1v1h-1z M3,4h1v1h-1z M4,4h1v1h-1z M5,4h1v1h-1z M7,4h1v1h-1z M9,4h1v1h-1z M10,4h1v1h-1z M11,4h1v1h-1z M13,4h1v1h-1z M15,4h1v1h-1z M17,4h1v1h-1z M18,4h1v1h-1z M19,4h1v1h-1z M21,4h1v1h-1z M1,5h1v1h-1z M3,5h1v1h-1z M4,5h1v1h-1z M5,5h1v1h-1z M7,5h1v1h-1z M10,5h1v1h-1z M11,5h1v1h-1z M12,5h1v1h-1z M15,5h1v1h-1z M17,5h1v1h-1z M18,5h1v1h-1z M19,5h1v1h-1z M21,5h1v1h-1z M1,6h1v1h-1z M7,6h1v1h-1z M11,6h1v1h-1z M13,6h1v1h-1z M15,6h1v1h-1z M21,6h1v1h-1z M1,7h1v1h-1z M2,7h1v1h-1z M3,7h1v1h-1z M4,7h1v1h-1z M5,7h1v1h-1z M6,7h1v1h-1z M7,7h1v1h-1z M9,7h1v1h-1z M11,7h1v1h-1z M13,7h1v1h-1z M15,7h1v1h-1z M16,7h1v1h-1z M17,7h1v1h-1z M18,7h1v1h-1z M19,7h1v1h-1z M20,7h1v1h-1z M21,7h1v1h-1z M3,9h1v1h-1z M5,9h1v1h-1z M6,9h1v1h-1z M7,9h1v1h-1z M9,9h1v1h-1z M12,9h1v1h-1z M14,9h1v1h-1z M18,9h1v1h-1z M21,9h1v1h-1z M1,10h1v1h-1z M2,10h1v1h-1z M3,10h1v1h-1z M4,10h1v1h-1z M8,10h1v1h-1z M9,10h1v1h-1z M12,10h1v1h-1z M13,10h1v1h-1z M14,10h1v1h-1z M15,10h1v1h-1z M19,10h1v1h-1z M20,10h1v1h-1z M1,11h1v1h-1z M2,11h1v1h-1z M3,11h1v1h-1z M5,11h1v1h-1z M6,11h1v1h-1z M7,11h1v1h-1z M9,11h1v1h-1z M10,11h1v1h-1z M13,11h1v1h-1z M15,11h1v1h-1z M17,11h1v1h-1z M21,11h1v1h-1z M3,12h1v1h-1z M5,12h1v1h-1z M10,12h1v1h-1z M11,12h1v1h-1z M12,12h1v1h-1z M14,12h1v1h-1z M15,12h1v1h-1z M19,12h1v1h-1z M20,12h1v1h-1z M1,13h1v1h-1z M3,13h1v1h-1z M4,13h1v1h-1z M6,13h1v1h-1z M7,13h1v1h-1z M8,13h1v1h-1z M9,13h1v1h-1z M11,13h1v1h-1z M17,13h1v1h-1z M19,13h1v1h-1z M20,13h1v1h-1z M21,13h1v1h-1z M9,14h1v1h-1z M10,14h1v1h-1z M12,14h1v1h-1z M13,14h1v1h-1z M14,14h1v1h-1z M15,14h1v1h-1z M16,14h1v1h-1z M18,14h1v1h-1z M20,14h1v1h-1z M1,15h1v1h-1z M2,15h1v1h-1z M3,15h1v1h-1z M4,15h1v1h-1z M5,15h1v1h-1z M6,15h1v1h-1z M7,15h1v1h-1z M15,15h1v1h-1z M16,15h1v1h-1z M18,15h1v1h-1z M19,15h1v1h-1z M20,15h1v1h-1z M21,15h1v1h-1z M1,16h1v1h-1z M7,16h1v1h-1z M9,16h1v1h-1z M12,16h1v1h-1z M16,16h1v1h-1z M17,16h1v1h-1z M18,16h1v1h-1z M20,16h1v1h-1z M1,17h1v1h-1z M3,17h1v1h-1z M4,17h1v1h-1z M5,17h1v1h-1z M7,17h1v1h-1z M9,17h1v1h-1z M10,17h1v1h-1z M11,17h1v1h-1z M12,17h1v1h-1z M15,17h1v1h-1z M16,17h1v1h-1z M18,17h1v1h-1z M19,17h1v1h-1z M21,17h1v1h-1z M1,18h1v1h-1z M3,18h1v1h-1z M4,18h1v1h-1z M5,18h1v1h-1z M7,18h1v1h-1z M10,18h1v1h-1z M11,18h1v1h-1z M12,18h1v1h-1z M13,18h1v1h-1z M15,18h1v1h-1z M19,18h1v1h-1z M20,18h1v1h-1z M1,19h1v1h-1z M3,19h1v1h-1z M4,19h1v1h-1z M5,19h1v1h-1z M7,19h1v1h-1z M9,19h1v1h-1z M12,19h1v1h-1z M13,19h1v1h-1z M15,19h1v1h-1z M17,19h1v1h-1z M21,19h1v1h-1z M1,20h1v1h-1z M7,20h1v1h-1z M12,20h1v1h-1z M13,20h1v1h-1z M15,20h1v1h-1z M19,20h1v1h-1z M1,21h1v1h-1z M2,21h1v1h-1z M3,21h1v1h-1z M4,21h1v1h-1z M5,21h1v1h-1z M6,21h1v1h-1z M7,21h1v1h-1z M10,21h1v1h-1z M11,21h1v1h-1z M13,21h1v1h-1z M14,21h1v1h-1z M15,21h1v1h-1z M17,21h1v1h-1z M19,21h1v1h-1z M21,21h1v1h-1z" fill="#000000"/>
</svg>
